{
  "asset": {
    "version": "2.0",
    "generator": "THREE.GLTFExporter"
  },
  "scenes": [
    {
      "name": "Scene",
      "nodes": [
        19
      ]
    }
  ],
  "scene": 0,
  "nodes": [
    {
      "name": "Sphere001_White_0",
      "extras": {
        "name": "Sphere.001_White_0"
      },
      "mesh": 0
    },
    {
      "matrix": [
        68.28963470458984,
        0,
        0,
        0,
        0,
        -0.000011125793636001731,
        -68.28963470458892,
        0,
        0,
        68.28963470458892,
        -0.000011125793636001731,
        0,
        7.487928867340088,
        367.7180480957031,
        8.004343032836914,
        1
      ],
      "name": "Sphere001",
      "extras": {
        "name": "Sphere.001"
      },
      "children": [
        0
      ]
    },
    {
      "name": "Circle003_White_0",
      "extras": {
        "name": "Circle.003_White_0"
      },
      "mesh": 1
    },
    {
      "matrix": [
        128.55752126075416,
        3.330669073875469e-14,
        153.20888919149155,
        0,
        153.20888919149144,
        -0.000008742278012618955,
        -128.55752126075407,
        0,
        0.000006696973475772695,
        199.99999999999986,
        -0.000005619427989600468,
        0,
        0,
        0,
        0,
        1
      ],
      "name": "Circle003",
      "extras": {
        "name": "Circle.003"
      },
      "children": [
        2
      ]
    },
    {
      "name": "Sphere002_White001_0",
      "extras": {
        "name": "Sphere.002_White.001_0"
      },
      "mesh": 2
    },
    {
      "matrix": [
        59.14841842651367,
        0,
        0,
        0,
        0,
        -0.000008341836604341002,
        -51.20182800292901,
        0,
        0,
        59.14841842651289,
        -0.000009636500514999927,
        0,
        -2.1406383514404297,
        -246.92678833007812,
        -140.7827911376953,
        1
      ],
      "name": "Sphere002",
      "extras": {
        "name": "Sphere.002"
      },
      "children": [
        4
      ]
    },
    {
      "name": "Sphere003_White002_0",
      "extras": {
        "name": "Sphere.003_White.002_0"
      },
      "mesh": 3
    },
    {
      "matrix": [
        59.14841842651367,
        0,
        0,
        0,
        0,
        -0.000008132513387849591,
        -49.91701126098567,
        0,
        0,
        59.14841842651289,
        -0.000009636500514999927,
        0,
        -2.1406383514404297,
        -246.92678833007812,
        147.3485107421875,
        1
      ],
      "name": "Sphere003",
      "extras": {
        "name": "Sphere.003"
      },
      "children": [
        6
      ]
    },
    {
      "name": "Circle002_Material003_0",
      "extras": {
        "name": "Circle.002_Material.003_0"
      },
      "mesh": 4
    },
    {
      "matrix": [
        128.55752126075416,
        3.330669073875469e-14,
        153.20888919149155,
        0,
        153.20888919149144,
        -0.000008742278012618955,
        -128.55752126075407,
        0,
        0.000006696973475772695,
        199.99999999999986,
        -0.000005619427989600468,
        0,
        0,
        0,
        0,
        1
      ],
      "name": "Circle002",
      "extras": {
        "name": "Circle.002"
      },
      "children": [
        8
      ]
    },
    {
      "name": "Circle004_Material003_0",
      "extras": {
        "name": "Circle.004_Material.003_0"
      },
      "mesh": 5
    },
    {
      "matrix": [
        128.55752126075416,
        3.330669073875469e-14,
        153.20888919149155,
        0,
        153.20888919149144,
        -0.000008742278012618955,
        -128.55752126075407,
        0,
        0.000006696973475772695,
        199.99999999999986,
        -0.000005619427989600468,
        0,
        0,
        0,
        0,
        1
      ],
      "name": "Circle004",
      "extras": {
        "name": "Circle.004"
      },
      "children": [
        10
      ]
    },
    {
      "name": "Object_17",
      "extras": {
        "name": "Object_17"
      }
    },
    {
      "matrix": [
        1,
        0,
        0,
        0,
        0,
        2.220446049250313e-16,
        1,
        0,
        0,
        -1,
        2.220446049250313e-16,
        0,
        0,
        0,
        0,
        1
      ],
      "name": "Object_16",
      "extras": {
        "name": "Object_16"
      },
      "children": [
        12
      ]
    },
    {
      "matrix": [
        -29.08647719990354,
        -5.518906457566848,
        -95.5171191017144,
        0,
        56.63930913109451,
        79.46723428563203,
        -21.839123978419682,
        0,
        77.11008775993375,
        -60.452463565620455,
        -19.988346967737233,
        0,
        407.6245422363281,
        590.38623046875,
        -100.54539489746094,
        1
      ],
      "name": "Light",
      "extras": {
        "name": "Light"
      },
      "children": [
        13
      ]
    },
    {
      "name": "RootNode",
      "extras": {
        "name": "RootNode"
      },
      "children": [
        1,
        3,
        5,
        7,
        9,
        11,
        14
      ]
    },
    {
      "matrix": [
        1,
        0,
        0,
        0,
        0,
        2.220446049250313e-16,
        1,
        0,
        0,
        -1,
        2.220446049250313e-16,
        0,
        0,
        0,
        0,
        1
      ],
      "name": "HAT2fbx",
      "extras": {
        "name": "HAT2.fbx"
      },
      "children": [
        15
      ]
    },
    {
      "matrix": [
        1,
        0,
        0,
        0,
        0,
        2.220446049250313e-16,
        -1,
        0,
        0,
        1,
        2.220446049250313e-16,
        0,
        0,
        0,
        0,
        1
      ],
      "name": "Sketchfab_model",
      "extras": {
        "name": "Sketchfab_model"
      },
      "children": [
        16
      ]
    },
    {
      "matrix": [
        1.1102230246251566e-18,
        0,
        -0.005,
        0,
        0,
        0.005,
        0,
        0,
        0.005,
        0,
        1.1102230246251566e-18,
        0,
        0,
        -1.6497914145929826e-12,
        -3.242767165900773e-12,
        1
      ],
      "name": "hatglb",
      "extras": {
        "name": "hat.glb"
      },
      "children": [
        17
      ]
    },
    {
      "matrix": [
        2,
        0,
        0,
        0,
        0,
        2,
        0,
        0,
        0,
        0,
        2,
        0,
        0,
        0,
        -1.336342353179393,
        1
      ],
      "name": "scene.gltf",
      "children": [
        18
      ]
    }
  ],
  "bufferViews": [
    {
      "buffer": 0,
      "byteOffset": 0,
      "byteLength": 6708,
      "target": 34962,
      "byteStride": 12
    },
    {
      "buffer": 0,
      "byteOffset": 6708,
      "byteLength": 6708,
      "target": 34962,
      "byteStride": 12
    },
    {
      "buffer": 0,
      "byteOffset": 13416,
      "byteLength": 4472,
      "target": 34962,
      "byteStride": 8
    },
    {
      "buffer": 0,
      "byteOffset": 17888,
      "byteLength": 11520,
      "target": 34963
    },
    {
      "buffer": 0,
      "byteOffset": 29408,
      "byteLength": 6240,
      "target": 34962,
      "byteStride": 12
    },
    {
      "buffer": 0,
      "byteOffset": 35648,
      "byteLength": 6240,
      "target": 34962,
      "byteStride": 12
    },
    {
      "buffer": 0,
      "byteOffset": 41888,
      "byteLength": 4160,
      "target": 34962,
      "byteStride": 8
    },
    {
      "buffer": 0,
      "byteOffset": 46048,
      "byteLength": 10608,
      "target": 34963
    },
    {
      "buffer": 0,
      "byteOffset": 56656,
      "byteLength": 6708,
      "target": 34962,
      "byteStride": 12
    },
    {
      "buffer": 0,
      "byteOffset": 63364,
      "byteLength": 6708,
      "target": 34962,
      "byteStride": 12
    },
    {
      "buffer": 0,
      "byteOffset": 70072,
      "byteLength": 4472,
      "target": 34962,
      "byteStride": 8
    },
    {
      "buffer": 0,
      "byteOffset": 74544,
      "byteLength": 11520,
      "target": 34963
    },
    {
      "buffer": 0,
      "byteOffset": 86064,
      "byteLength": 6708,
      "target": 34962,
      "byteStride": 12
    },
    {
      "buffer": 0,
      "byteOffset": 92772,
      "byteLength": 6708,
      "target": 34962,
      "byteStride": 12
    },
    {
      "buffer": 0,
      "byteOffset": 99480,
      "byteLength": 4472,
      "target": 34962,
      "byteStride": 8
    },
    {
      "buffer": 0,
      "byteOffset": 103952,
      "byteLength": 11520,
      "target": 34963
    },
    {
      "buffer": 0,
      "byteOffset": 115472,
      "byteLength": 2952,
      "target": 34962,
      "byteStride": 12
    },
    {
      "buffer": 0,
      "byteOffset": 118424,
      "byteLength": 2952,
      "target": 34962,
      "byteStride": 12
    },
    {
      "buffer": 0,
      "byteOffset": 121376,
      "byteLength": 1968,
      "target": 34962,
      "byteStride": 8
    },
    {
      "buffer": 0,
      "byteOffset": 123344,
      "byteLength": 4176,
      "target": 34963
    },
    {
      "buffer": 0,
      "byteOffset": 127520,
      "byteLength": 13056,
      "target": 34962,
      "byteStride": 12
    },
    {
      "buffer": 0,
      "byteOffset": 140576,
      "byteLength": 13056,
      "target": 34962,
      "byteStride": 12
    },
    {
      "buffer": 0,
      "byteOffset": 153632,
      "byteLength": 8704,
      "target": 34962,
      "byteStride": 8
    },
    {
      "buffer": 0,
      "byteOffset": 162336,
      "byteLength": 24576,
      "target": 34963
    }
  ],
  "buffers": [
    {
      "byteLength": 186912,
      "uri": "data:application/octet-stream;base64,"
    }
  ],
  "accessors": [
    {
      "bufferView": 0,
      "componentType": 5126,
      "count": 559,
      "max": [
        1,
        1,
        1
      ],
      "min": [
        -1,
        -1,
        -1
      ],
      "type": "VEC3"
    },
    {
      "bufferView": 1,
      "componentType": 5126,
      "count": 559,
      "max": [
        1.000000238418579,
        1,
        1
      ],
      "min": [
        -0.9999998211860657,
        -1.0000003576278687,
        -1
      ],
      "type": "VEC3"
    },
    {
      "bufferView": 2,
      "componentType": 5126,
      "count": 559,
      "max": [
        1.000000238418579,
        1
      ],
      "min": [
        0,
        0
      ],
      "type": "VEC2"
    },
    {
      "bufferView": 3,
      "componentType": 5125,
      "count": 2880,
      "max": [
        558
      ],
      "min": [
        0
      ],
      "type": "SCALAR"
    },
    {
      "bufferView": 4,
      "componentType": 5126,
      "count": 520,
      "max": [
        1,
        1,
        0.907703161239624
      ],
      "min": [
        -1,
        -1,
        -0.9939523935317993
      ],
      "type": "VEC3"
    },
    {
      "bufferView": 5,
      "componentType": 5126,
      "count": 520,
      "max": [
        1,
        1,
        0.3761577308177948
      ],
      "min": [
        -1,
        -1,
        -1.0162625312805176
      ],
      "type": "VEC3"
    },
    {
      "bufferView": 6,
      "componentType": 5126,
      "count": 520,
      "max": [
        0,
        0
      ],
      "min": [
        0,
        0
      ],
      "type": "VEC2"
    },
    {
      "bufferView": 7,
      "componentType": 5125,
      "count": 2652,
      "max": [
        519
      ],
      "min": [
        0
      ],
      "type": "SCALAR"
    },
    {
      "bufferView": 8,
      "componentType": 5126,
      "count": 559,
      "max": [
        1,
        1,
        1
      ],
      "min": [
        -1,
        -1,
        -1
      ],
      "type": "VEC3"
    },
    {
      "bufferView": 9,
      "componentType": 5126,
      "count": 559,
      "max": [
        1.000000238418579,
        1,
        1
      ],
      "min": [
        -0.9999998211860657,
        -1.0000003576278687,
        -1
      ],
      "type": "VEC3"
    },
    {
      "bufferView": 10,
      "componentType": 5126,
      "count": 559,
      "max": [
        1.000000238418579,
        1
      ],
      "min": [
        0,
        0
      ],
      "type": "VEC2"
    },
    {
      "bufferView": 11,
      "componentType": 5125,
      "count": 2880,
      "max": [
        558
      ],
      "min": [
        0
      ],
      "type": "SCALAR"
    },
    {
      "bufferView": 12,
      "componentType": 5126,
      "count": 559,
      "max": [
        1,
        1,
        1
      ],
      "min": [
        -1,
        -1,
        -1
      ],
      "type": "VEC3"
    },
    {
      "bufferView": 13,
      "componentType": 5126,
      "count": 559,
      "max": [
        1.000000238418579,
        1,
        1
      ],
      "min": [
        -0.9999998211860657,
        -1.0000003576278687,
        -1
      ],
      "type": "VEC3"
    },
    {
      "bufferView": 14,
      "componentType": 5126,
      "count": 559,
      "max": [
        1.000000238418579,
        1
      ],
      "min": [
        0,
        0
      ],
      "type": "VEC2"
    },
    {
      "bufferView": 15,
      "componentType": 5125,
      "count": 2880,
      "max": [
        558
      ],
      "min": [
        0
      ],
      "type": "SCALAR"
    },
    {
      "bufferView": 16,
      "componentType": 5126,
      "count": 246,
      "max": [
        0.9823209047317505,
        0.9823209047317505,
        0.21698877215385437
      ],
      "min": [
        -0.9823209047317505,
        -0.9823209047317505,
        -0.9994817972183228
      ],
      "type": "VEC3"
    },
    {
      "bufferView": 17,
      "componentType": 5126,
      "count": 246,
      "max": [
        0.9633625745773315,
        0.9025729298591614,
        0.4547857642173767
      ],
      "min": [
        -0.9581663012504578,
        -0.9074673652648926,
        -0.9698150157928467
      ],
      "type": "VEC3"
    },
    {
      "bufferView": 18,
      "componentType": 5126,
      "count": 246,
      "max": [
        0,
        0
      ],
      "min": [
        0,
        0
      ],
      "type": "VEC2"
    },
    {
      "bufferView": 19,
      "componentType": 5125,
      "count": 1044,
      "max": [
        245
      ],
      "min": [
        0
      ],
      "type": "SCALAR"
    },
    {
      "bufferView": 20,
      "componentType": 5126,
      "count": 1088,
      "max": [
        0.9999798536300659,
        0.9999186992645264,
        0.8548628687858582
      ],
      "min": [
        -0.9998854398727417,
        -0.9999617338180542,
        0.005920655094087124
      ],
      "type": "VEC3"
    },
    {
      "bufferView": 21,
      "componentType": 5126,
      "count": 1088,
      "max": [
        0.9472070932388306,
        0.9472070932388306,
        1.589564323425293
      ],
      "min": [
        -0.9472070932388306,
        -0.9472070932388306,
        0.3761577904224396
      ],
      "type": "VEC3"
    },
    {
      "bufferView": 22,
      "componentType": 5126,
      "count": 1088,
      "max": [
        0,
        0
      ],
      "min": [
        0,
        0
      ],
      "type": "VEC2"
    },
    {
      "bufferView": 23,
      "componentType": 5125,
      "count": 6144,
      "max": [
        1087
      ],
      "min": [
        0
      ],
      "type": "SCALAR"
    }
  ],
  "materials": [
    {
      "pbrMetallicRoughness": {
        "baseColorFactor": [
          0.8,
          0.8,
          0.8,
          1
        ],
        "metallicFactor": 0,
        "roughnessFactor": 0.8211145618000169
      },
      "doubleSided": true,
      "name": "White"
    },
    {
      "pbrMetallicRoughness": {
        "baseColorFactor": [
          0.8,
          0.8,
          0.8,
          1
        ],
        "metallicFactor": 0,
        "roughnessFactor": 0.8211145618000169
      },
      "doubleSided": true,
      "name": "White.001"
    },
    {
      "pbrMetallicRoughness": {
        "baseColorFactor": [
          0.8,
          0.8,
          0.8,
          1
        ],
        "metallicFactor": 0,
        "roughnessFactor": 0.8211145618000169
      },
      "doubleSided": true,
      "name": "White.002"
    },
    {
      "pbrMetallicRoughness": {
        "baseColorFactor": [
          0.8,
          0.00233584,
          0,
          1
        ],
        "metallicFactor": 0,
        "roughnessFactor": 0.9615953999394868
      },
      "doubleSided": true,
      "name": "Material.003"
    }
  ],
  "meshes": [
    {
      "primitives": [
        {
          "mode": 4,
          "attributes": {
            "NORMAL": 0,
            "POSITION": 1,
            "TEXCOORD_0": 2
          },
          "indices": 3,
          "material": 0
        }
      ]
    },
    {
      "primitives": [
        {
          "mode": 4,
          "attributes": {
            "NORMAL": 4,
            "POSITION": 5,
            "TEXCOORD_0": 6
          },
          "indices": 7,
          "material": 0
        }
      ]
    },
    {
      "primitives": [
        {
          "mode": 4,
          "attributes": {
            "NORMAL": 8,
            "POSITION": 9,
            "TEXCOORD_0": 10
          },
          "indices": 11,
          "material": 1
        }
      ]
    },
    {
      "primitives": [
        {
          "mode": 4,
          "attributes": {
            "NORMAL": 12,
            "POSITION": 13,
            "TEXCOORD_0": 14
          },
          "indices": 15,
          "material": 2
        }
      ]
    },
    {
      "primitives": [
        {
          "mode": 4,
          "attributes": {
            "NORMAL": 16,
            "POSITION": 17,
            "TEXCOORD_0": 18
          },
          "indices": 19,
          "material": 3
        }
      ]
    },
    {
      "primitives": [
        {
          "mode": 4,
          "attributes": {
            "NORMAL": 20,
            "POSITION": 21,
            "TEXCOORD_0": 22
          },
          "indices": 23,
          "material": 3
        }
      ]
    }
  ]
}