<svg version="1" xmlns="http://www.w3.org/2000/svg" width="266.667" height="266.667" viewBox="0 0 200.000000 200.000000"><path d="M0 100v100h200V0H0v100zm121.5-79c16.7 4.3 33.6 15.7 42.6 28.7 1.7 2.4 4.2 7.3 5.6 11 2.3 5.8 2.7 8.3 2.7 17.3-.1 7.3-.6 11.9-1.7 15.1-1.6 4.3-1.6 5-.2 9 .9 2.4 1.8 7.8 2.2 11.9 1.4 19.1-8.5 37.4-26.9 49.6-32.4 21.6-75.3 16.8-102-11.3-15.6-16.5-22.7-35.9-21.5-59C24.2 55.5 52.4 24.8 90.5 19c8.2-1.2 21.9-.3 31 2z"/><path d="M104.4 31.9c.3.4-1.1.5-3.1.3-2.7-.4-3.4-.1-2.8.8.6.9.4 1.1-.6.5-1.9-1.3-4.9-1.3-5.6-.2-.3.5-.8.5-1.2-.2-.5-.7-1.8-.7-4.4 0-3.9 1-4.8 3.3-2.4 5.9 1 1.2.9 1.2-.5.1-.9-.7-1.8-2.1-2-3.1-.3-1.7-.6-1.7-3.7-.4-2.4 1-3.1 1.7-2.4 2.7 1.8 2.2 2.2 5.7.7 5.7-1 0-1.3-.7-.8-2.5.7-2.9-1.8-4.5-4.5-2.8-2.4 1.5-1.7 11.2 1.1 13.5 1.1 1 1.6 1.8 1.1 1.8-2.2 0-4.3-3.8-4.3-7.8 0-5.2-1.1-5.9-5.2-3-6.3 4.3-10.9 9.1-9.5 10 .8.5.5.8-1 .8-2.5 0-3.9 1.5-2.3 2.5.5.3 1 1.2 1 1.8 0 .8-.4.7-.9-.2-1.2-1.8-3.1-.4-5.9 4.3l-1.9 3.2 3 3.4c2.5 2.9 2.9 3.9 2.4 7.7-.2 2.4-.2 4.2.1 3.9.3-.3 1.1-.1 1.9.5.9.8 1.3.8 1.3.1 0-.6-.4-1.4-1-1.7-1.3-.8-1.3-5.2 0-6 .6-.3 1-1.7 1-3 0-2.8 3-4.8 5.7-3.8 1.6.6 1.7.5.3-1.2-1.3-1.6-1.1-1.6 1.3.2 1.6 1.2 3.6 1.9 4.5 1.6 1.5-.5 1.5-.4-.1.8-1.1.9-2 3.6-2.5 8.2-.9 7.3-2.2 9-5.9 8.4-1.3-.2-2.3-.2-2.3 0 0 .7 5.2 9.3 5.6 9.3.2 0 .1-1.4-.2-3-.7-3.5-.6-3.5 4.1-1.3 3.3 1.6 3.7 1.6 6.4 0 1.6-.9 3.6-1.4 4.5-1.1.9.3 1.6.2 1.6-.3 0-.6 1-1.5 2.3-2.1 1.5-.7 1.7-1.1.6-1.1-.9-.1-2.7-1.2-4.1-2.6L71.3 80l-1.1 2.5c-1.3 2.7-4.9 3.4-7 1.3-.7-.7-1.1-3.2-1-5.8l.1-4.5.6 4.4c.7 5.4 3.2 7.4 5.8 4.8 1.6-1.6 1.6-1.7-.5-1.7-1.3 0-2.2-.6-2.2-1.5 0-1.1.8-1.5 2.8-1.3 2.1.2 2.7-.1 2.7-1.7 0-1.4-.7-2-2.2-2-3.1 0-4.1-1.5-1.5-2.2 2.8-.7 2.8-2.8 0-4.7-1.2-.9-1.8-1.9-1.4-2.3.4-.4 1.1-.1 1.5.6.5.7 1.3 1.1 1.7.8.5-.3 1.4.1 2.1.8 1 1 1 1.4.1 1.7-.9.3-.9 1.5.2 4.7.9 2.7 1.7 3.8 2.3 3.2.7-.7.6-1.5-.3-2.6-.7-.8-.9-1.5-.4-1.5s.3-.4-.5-.9c-1.2-.8-1.2-1.2 0-2.8 1.4-1.9 3.2-2.3 4.5-1.1 1.1 1.2 3.4-1.2 3.4-3.7 0-2.6-2.9-5.5-5.5-5.5-1 0-2.8.8-3.9 1.7-2.1 1.8-2.1 1.8-.2-.5 2.5-2.8 5.7-2.8 8.4.1 3.8 4.1 1.8 9.6-3.2 8.9-1.9-.2-2-.2-.3.8 1.1.7 1.6 1.8 1.2 2.9-.5 1.6.1 1.8 4.7 1.5 2.9-.1 6.1-.3 7.1-.3 1.6-.1 1.6-.3.2-3.1-.8-1.6-1.5-3.8-1.5-4.9 0-2.1 4.9-12.4 5-10.4 0 .7 1.5 1 4.3.7l4.2-.3-3.9.8c-6.9 1.5-10.4 7.8-7.4 13.4 1.6 3.1 3.9 4.6 6.8 4.6h2.5l-2.5-1c-2.8-1.1-6-3.8-6-5 0-.4 1.1.3 2.5 1.6 2.8 2.9 5.1 3.1 8.3.9 1.2-.8 2.2-1.2 2.2-.8 0 2.1 3-2.3 3.3-4.9l.4-3.2.1 3.2c.2 2.4.6 3.1 1.6 2.7.8-.3 1.2-1.3.9-2.2-.4-1.3-.3-1.4.5-.3.7 1 2.1 1.1 5.3.6 2.4-.5 6.3-.7 8.7-.6 2.4.2 5-.3 5.8-1 1.2-1 1.3-.9.8.5-.5 1.2 0 1.6 1.9 1.6 2.9 0 4.7-3.4 2.8-5.3-.6-.6-1-2.7-1-4.7l.2-3.5.6 3.9c.6 4.2 1.2 4.6 9.5 5.9 4.2.7 3.8-.8-.4-1.6-2.4-.4-2.4-.4.3-.6 2.1-.1 3.2.7 4.7 3.1 1.7 2.8 1.7 3.4.4 5.2-.8 1.1-1.4 2.7-1.4 3.6 0 .8.9 0 2-1.8 1.1-1.7 2.4-3.2 3-3.2.5 0 .1.9-1.1 2.1-2.5 2.5-2.2 4.6 1.2 6.6 4.3 2.6 5.9 1.3 4.8-3.9-.6-2.3-1.5-4.5-2.1-4.9-.7-.4-.5-.8.3-1.2.9-.3.7-.6-.6-.6-1.6-.1-1.7-.3-.5-1.1 1.1-.7 1.2-1.2.3-2.1-.8-.8-1.4-.6-2.2.9-.6 1-.7 2.2-.4 2.6.3.3.1.6-.5.6-1.6 0-1.5-1.2.3-3.6 1.9-2.5 1.9-3.6-.1-6-1.4-1.7-1.5-1.7-1-.1.4 1.1.2 1.6-.5 1.2-.5-.4-.7-1.5-.4-2.5.6-1.9-4-6.4-5.6-5.4-.5.3-.6-.1-.3-.9.3-.9-1.2-2.7-4.3-4.9-5.6-4.1-13.8-8.5-12.8-6.8.4.7-1 .1-3.1-1.3-3.7-2.4-9.2-3.9-17.7-5.1-2-.3-3.5-.2-3.3.3zm-8.9 2.9c-.3.3-1.1 0-1.8-.7-.9-1-.8-1.1.6-.5 1 .3 1.5.9 1.2 1.2zm12.9 3.7c-.3.6-1.1 1.2-1.8 1.2-1 0-1-.6-.2-2.3 1.1-2.2 2.9-1.3 2 1.1zm12.7-.9c-1.7 1.2-2.2 2.4-1.9 4.5.3 1.5.1 2.6-.4 2.3-2.3-1.4.7-8.4 3.6-8.4.6 0 0 .7-1.3 1.6zm-23.8.5c2-1.3 2.1-1.3.8.2-.7 1-2.1 1.7-3.1 1.7s-2.4-.7-3.1-1.7c-1.3-1.5-1.2-1.5.9-.2 1.9 1.2 2.5 1.2 4.5 0zm5.9 3.1c-.7.7-3.1 1.1-5.4.9-3.8-.2-4-.1-2.7 1.6 1.3 1.6 1.2 1.7-.4.4-.9-.7-2.9-1.1-4.5-.9-1.5.3-4 .1-5.7-.3-2.8-.8-2.8-.8.6-.4 2 .2 4.1-.1 4.5-.5.5-.5 3.6-1.1 6.9-1.3 3.3-.2 6.4-.4 7-.5.5-.1.4.3-.3 1zm26.5 2c-.3.7-.5.2-.5-1.2s.2-1.9.5-1.3c.2.7.2 1.9 0 2.5zm-24.4.3c-.3.9-.8 1.4-1 1.1-.3-.3-.2-.9.2-1.5.9-1.6 1.5-1.3.8.4zm20.3.6c.1.8.2 1.8.3 2.3 0 .5.9.2 1.9-.5 1.5-1.3 1.6-1.2.4.2-1.6 2.2-7.2 3.1-7.2 1.2 0-.7.5-1.3 1.1-1.3.5 0 .7-.5.4-1-.8-1.4.4-3.2 1.8-2.7.7.2 1.3 1 1.3 1.8zM80 45.9c0 .5-.7 1.4-1.5 2.1-.8.7-1.5 1.8-1.5 2.6 0 .7-.4 1.6-1 1.9-.6.3-.7-.1-.4-.9.4-1.1 0-1.6-1-1.6-.9 0-1.6-.4-1.6-.9 0-.6.9-.8 2.1-.6 1.5.3 2.3-.2 2.6-1.5.5-2 2.3-2.8 2.3-1.1zm9.1.1c.9-1.3 1-1.3.6 0-.2.8-1 1.5-1.7 1.5s-1.5-.7-1.7-1.5c-.4-1.3-.3-1.3.6 0 1 1.3 1.2 1.3 2.2 0zm7.9 2.5c0 1.4-.4 2.5-.9 2.5-.4 0-.6-1.1-.3-2.5.2-1.4.6-2.5.8-2.5.2 0 .4 1.1.4 2.5zm9.1.8c-.8.8-1.4.8-2.3-.2-1.1-1-1-1.1.5-.6 1.2.5 1.7.2 1.8-1.1 0-1.2.2-1.4.6-.6.3.8 0 1.9-.6 2.5zm-41.8-.1c-.2.5-1 .8-1.7.8-.8 0-1.3 1.4-1.4 3.5-.2 4.4-.8 5.5-3 5.4-1.5-.1-1.5-.2.1-.6 1.2-.3 1.7-1.5 1.7-4.2 0-4.6-.8-5.6-2.7-3.3-1.3 1.5-1.3 1.5-.4-.4.8-1.6 1.9-2.1 4.5-2 1.9 0 3.2.4 2.9.8zm65.7-.8c0 .2-.7.7-1.6 1-.8.3-1.2.2-.9-.4.6-1 2.5-1.4 2.5-.6zm3.5.6c.4.6 1 .8 1.5.5.4-.3.6.5.2 1.7-.4 1.6-.7 1.8-1 .8-.2-.8-1.1-2.1-2-2.8-.9-.6-1.1-1.2-.5-1.2.7 0 1.5.5 1.8 1zm-15.1 2.4c-.3.9-1 1.6-1.6 1.6-.5 0-.7.4-.4.8.3.5-.1.9-.9.9s-1.2-.4-.9-.9c1.1-1.7-2.7-1.9-5.4-.3l-2.7 1.8 1.9-2.1c2.1-2.4 6.2-2.9 6.9-1 .2.8.9.5 1.7-.9 1.6-2.5 2.4-2.4 1.4.1zm7.6-1.5c0 .5-.7 1.6-1.5 2.5-1.4 1.3-1.3 1.6.2 2.5 1.7.9 1.7 1.2-.2 4.8-1.5 2.8-2.6 3.8-4.5 3.8-1.6 0-2.5-.6-2.6-1.8-.1-1.2-.1-1.3.3-.2.2.8 1.1 1.5 1.8 1.5.9 0 1.2-.7.9-1.8-.5-1.4-.4-1.5.5-.2 1 1.3 1.2 1.3 2.1 0 1.6-2.4 1.2-5.9-.9-7.1-1.7-1.1-1.7-1.4-.2-3.1 1.6-1.9 4.1-2.4 4.1-.9zm-58.9 2.4c-1 .9-1.1.8-.5-.6.3-1 .9-1.5 1.2-1.2.3.3 0 1.1-.7 1.8zm15.6 1.9c-.3.8-.6.5-.6-.6-.1-1.1.2-1.7.5-1.3.3.3.4 1.2.1 1.9zM94 53c0 .5-.2 1-.4 1-.3 0-.8-.5-1.1-1-.3-.6-.1-1 .4-1 .6 0 1.1.4 1.1 1zm36 .6c0 .2-.9.4-2.1.4-1.1 0-1.8-.4-1.4-1 .5-.8 3.5-.3 3.5.6zm14 2.6c0 1.8.2 1.9 1.8.7.9-.7.4.1-1.1 1.8-2.7 2.9-3 3-4.8 1.5-2.2-1.9-2.2-1.9-.7-2.8.7-.4.8-.3.4.4-.8 1.4-.4 1.5 1.8.6 2.5-1 2-4.4-.6-4.4-1.8 0-2-.2-.8-1 1.8-1.1 4 .6 4 3.2zm2.7-2c-.3.8-.6.5-.6-.6-.1-1.1.2-1.7.5-1.3.3.3.4 1.2.1 1.9zM88 58.3l2.5.4-2.6.2c-1.5 0-3.3-.7-4-1.7-1.2-1.5-1.2-1.6.1-.5.8.6 2.6 1.3 4 1.6zm20.2 2.4c.6.7 1.4 1 1.9.7.5-.3.9 0 .9.6 0 .7.7.9 1.8.5 1.3-.5 1.4-.4.5.6-1.5 1.5-5.3-.1-9.3-4-2.3-2.2-2.4-2.3-.2-1.2 1.9 1 2.2.9 2.3-.6.1-1.5.2-1.5.6.2.3 1.1 1 2.6 1.5 3.2zm8.5-3.1c-.3.3-1.2.4-1.9.1-.8-.3-.5-.6.6-.6 1.1-.1 1.7.2 1.3.5zm12.8 2.1c-1.5 1-2 1-2.7.1-.4-.8-.1-1.5 1-1.9 2.6-1 3.7.2 1.7 1.8zM66 58.5c0 .2-1 .9-2.2 1.5-2.2 1.1-2.2 1-.4-.4 2.1-1.7 2.6-1.9 2.6-1.1zm27.7 2.8c-1.2 1.3-2.4 2.2-2.6 2-.6-.4 3-4.3 4-4.3.5 0-.2 1-1.4 2.3zm10.2.3c2.3 2.9 2.6 5.1 1.1 7.4-.7 1.1-.8.6-.4-1.7.5-2.5.1-3.7-1.9-5.7-1.5-1.4-2.2-2.6-1.7-2.6.5 0 1.8 1.2 2.9 2.6zm29.1-.1c-.7.8-2.2 1.4-3.4 1.4-1.9-.2-1.9-.2.2-.6 1.3-.3 2.6-1.1 2.9-1.9.3-.8.8-1.3 1.1-1 .3.3-.1 1.2-.8 2.1zM51 63c-1.1 2-1 2.1 1.2 1.5 2-.5 2-.4.5.5-2.6 1.6-3.8.4-2.5-2.5.6-1.4 1.3-2.3 1.5-2.1.3.2-.1 1.4-.7 2.6zm48.3-1.3c-.7.2-1.9.2-2.5 0-.7-.3-.2-.5 1.2-.5s1.9.2 1.3.5zm3.7 4.2c0 3.4-1.7 5.1-5 5.1s-5-1.7-4.9-5c.1-2.3.2-2.3.8.5.5 2.6 1 3 4.1 3 3.4 0 3.5-.1 3.5-3.7 0-2 .3-3.4.8-3.1.4.2.7 1.7.7 3.2zm32.7-2.3c-.3.3-1.2.4-1.9.1-.8-.3-.5-.6.6-.6 1.1-.1 1.7.2 1.3.5zM77 64.8c0 .5-.7.9-1.5.9s-1.5-.4-1.5-.9c0-.4.7-.8 1.5-.8s1.5.4 1.5.8zM99 66c0 .5-.4 1-1 1-.5 0-1-.5-1-1 0-.6.5-1 1-1 .6 0 1 .4 1 1zm55.6 5.6c-.9.8-1.6 2-1.6 2.6 0 .6-.3.9-.6.6-.8-.9 1.4-4.8 2.7-4.8.6 0 .3.7-.5 1.6zM158 74c0 .5-.4 1-1 1-.5 0-1-.5-1-1 0-.6.5-1 1-1 .6 0 1 .4 1 1z"/><path d="M123 44c0 .5.5 1 1 1 .6 0 1-.5 1-1 0-.6-.4-1-1-1-.5 0-1 .4-1 1zM140.5 65.8c-.4 1.1-.8 1.2-2 .2s-1.5-1-1.5.3c0 1.7 3.4 3.2 5 2.2.6-.4.9-.1.8.7-.2.9.7 1.2 2.7 1.1 2-.2 2.5.1 1.6.6-.9.6-1 1.1-.2 1.5.6.4 1.2.2 1.2-.3.3-2.1.4-2.6 1.3-4 .6-1 .3-1.8-.9-2.8-2.3-1.6-7.3-1.3-8 .5zM41.6 68.6c-.4 1 .1 2.5 1 3.5 2.5 2.7 1.4 6.2-2.6 8.2-3.5 1.8-3.5 1.8-.6 1.5 5.9-.6 8.1-7.2 3.8-11.5-1.3-1.3-1.3-1.5-.2-1.1.8.2 2.1 1.7 2.8 3.2C48.2 77.3 44.5 83 39 83c-1.2 0-1.8.4-1.5 1 .3.5.2 1-.3 1s-1.2 1.3-1.4 3c-.3 1.6-.3 3-.2 3 .1 0 1.2-1.6 2.4-3.5s2.8-3.5 3.6-3.5c.8 0 2.6-1.1 3.9-2.5 3.1-3 3.3-8.2.4-11.9-2.4-3-3.4-3.3-4.3-1zM54.3 67.7c-1.8.7-1.6 4.3.2 4.3.8 0 1.5.7 1.5 1.5s-.5 1.5-1.1 1.5c-.5 0-.8-.4-.5-.9.4-.5-.3-.7-1.4-.4-1.3.4-2 1.4-2 3 0 2.2.3 2.4 3 1.8 3.4-.7 4.4 1.3 1.1 2.2-3.1.8-3.2 2.9-.1 3.1 3.8.3 4.8-1.3 5.1-8.2.2-4.8-.1-6.1-1.6-7.2-2-1.5-2.3-1.5-4.2-.7z"/><path d="M40 74.4c0 1.4-.4 2.6-1 2.6-.5 0-1 .7-1 1.5 0 1.8 1.1 1.9 3.4.2 1.1-.8 1.7-2.2 1.4-3.7-.4-3.3-2.8-3.8-2.8-.6zM77.4 76.4c-7.6 3.3-2.6 8.6 8.1 8.6 5.8-.1 6.1-.2 8.7-4l2.7-3.9-3.4-1.1c-3.7-1.2-5.5-.7-5.5 1.6 0 1.6-2.6 1.9-3.5.4-.4-.6.1-.7 1.2-.4 1.5.5 1.5.4.3-.5-2.4-1.6-4.5 1-3.1 3.8 2.2 4.1 8 1.5 6.6-3-.5-1.4-.4-1.9.4-1.5 2.9 1.8-.1 7.6-3.9 7.6-2.9 0-5.4-4.3-4-6.9 1.3-2.5.1-2.7-4.6-.7zM120.2 79.7c-2 .4-2.3 1-2 4.1l.3 3.7 5.6.5c4.7.4 5.4.7 4.3 1.8-.8.7-1.4.9-1.4.5s-.5-.1-1 .7c-.9 1.3-1.1 1.3-2 0-.5-.8-1-1.1-1-.5 0 .5-.4.4-.9-.4-.8-1.2-1.4-1.3-3.5-.3-3.1 1.4-3.4 3.8-.5 4.7 1.1.4 1.8.9 1.6 1.2-.3.2-1.4 0-2.4-.5-2.4-1.3-6.4.5-4.2 1.9 1.1.7 1 .9-.3.9-.9 0-2.2.8-2.8 1.7-1.1 1.7-1.1 1.7-.6-.1.5-1.3.2-1.7-.8-1.3-.9.4-2.1-.5-3.2-2.1-1.7-2.7-1.7-2.7.3-1 1.1 1 2.6 1.8 3.5 1.8 1.9 0 4.8-3.2 4.8-5.4 0-.9.3-1.5.8-1.2.4.2 1.5-.2 2.5-.9 1.2-.8 1.4-1.5.8-2-.6-.3-1.1-2.2-1.1-4.2 0-2.8-.3-3.4-1.6-2.9-.9.3-1.9.6-2.2.6-.4 0 0 .5.8 1.1 1.2.9 1.1 1-.7.6-3.3-.7-6 1.8-8.9 8-1.9 4.3-2.4 6.5-1.9 9.4.8 4.9 4.1 9.7 8.4 12.6 4 2.7 5.1 2.3 2.1-.7-1.2-1.2-1.9-2.8-1.6-3.5.2-.7-.2-1.6-1-1.9-.8-.3-1.4-1.1-1.4-1.8 0-.9.3-.9 1.2 0 1.3 1.3 2.9 1.6 2.7.4-.6-3.8 1.7-4.3 3.1-.6 1.2 3.2 3 2.2 3-1.6 0-1.8-.8-3.4-2.2-4.4-1.8-1.3-1.9-1.6-.6-1.6.9 0 1.9.4 2.3 1 .3.5 1.1.8 1.8.6.7-.1.9-.1.5.1-1.2.7-.9 7.1.2 7.8.6.4 1.8.1 2.7-.7 1.4-1.1 1.5-1.1.5.7-.7 1.4-.7 2.6-.1 3.8 1.2 2 .4 3.7-1.8 3.7-1.2 0-1.4-.7-1-3 .6-2.8-1.2-5.7-2.1-3.2-.2.6-1.1.8-2 .5-1.3-.4-1.4-.3-.3.5 1 .7 1 1.4.2 3-.6 1.1-1.1 2.3-1.1 2.6 0 .3 4.1.6 9 .6 5 0 9-.3 9-.8 0-.4-1.4-3.1-3.1-6-2.3-4-3.5-5.2-4.7-4.8-1.5.5-1.5.5-.1-.6.9-.7 1.8-2 2.2-2.8.4-1 .6-.8.6.7.1 2.4 2.3 4.3 2.9 2.5.5-1.7 3.2-1.5 3.2.3 0 .7-.7 1.8-1.6 2.3-1.4.8-1.4 1 0 2.1.8.7 2.5 1.1 3.8.9 2.6-.3 3.9-3.8 1.4-3.8-.9 0-1.6-.8-1.5-1.8 0-1 .3-1.2.6-.5.2.7.9 1.3 1.4 1.3.6 0 .7-.4.4-1-.3-.5 0-.7.8-.4 1.9.7 3-1.1 2.2-3.6-.9-2.7-4.1-3.5-6.2-1.5-1.4 1.4-1.4 1.8-.2 2.7 1.2.8 1.2.9-.1.5-.8-.2-1.4-1.1-1.4-2 .1-1.2-1.1-1.5-6.4-1.6-3.5 0-6.7-.3-7.1-.7-.3-.3 1.5-.5 4.2-.3 2.6.3 4.7.1 4.7-.3s.9-1 2-1.3c2.5-.8 2.6-3.1.3-4.4-1-.6-1.3-1.1-.7-1.1 2 0 4.7 2.7 4.2 4.2-.5 1.2.3 1.5 4.1 1.3 3.2-.1 4.8.3 4.8 1.1 0 .7-.7 1-1.6.6-1.3-.5-1.3-.2.2 2.2 1.8 2.7 1.8 2.8-.2 4.3-1.2.8-2.1 2.2-2.1 3.2 0 2.6-2.6 4.4-5.5 3.9-2.8-.6-2.9-.4-1.5 2.3 1.1 1.9 1.1 1.9 4.8 0 4.5-2.3 12.2-8.8 12.2-10.3 0-.7.7-2 1.7-3 1.3-1.5 1.4-1.8.2-1.8-.8 0-2 .5-2.6 1.1-.8.8-1.3.8-1.8 0-.4-.7-.1-1 .7-.9.7.2 1.2-.2 1.1-.9-.2-.7.4-1 1.5-.7 1.4.5 1.4.3-.2-1-1.6-1.3-2.2-1.3-3.5-.3-1.4 1.1-1.4 1-.2-.6 1.2-1.5 1.1-2-.3-3.6-1.5-1.6-2.7-1.9-7.4-1.4-4 .3-5.3.2-4.2-.6.8-.5 1.8-.7 2.2-.5 1.1.7 2.2-2.2 1.4-3.5-.4-.6-1.8-.3-3.5.7-1.6.9-2.7 2-2.4 2.5.2.4-.8.5-2.4.2-4.7-1.1-5.5-1.4-4.8-2.4.3-.5.1-1.2-.4-1.6-.6-.3-1.5.4-2.1 1.5-1.1 2.1-4 2.8-4 .9 0-.6.7-.9 1.5-.5.9.3 1.5 0 1.5-.9 0-.8-.4-1.5-1-1.5-.5 0-.7-.7-.3-1.6.5-1.4.8-1.5 1.7-.3 1.6 2.1 4 2.3 3.2.4-.3-.9-.6-1.9-.6-2.1 0-.5-2.4-.3-5.8.3zM115 86c0 .5-.8 1-1.7 1-1.5 0-1.6-.2-.3-1 1.9-1.2 2-1.2 2 0zm-5.7 2.7c-1.5.5-1.8 3.3-.4 3.3.5 0 1.2-.6 1.4-1.3.4-.9.6-.9.6 0 .1 1.7-1.9 2.7-3.1 1.5-1.3-1.3-.3-4.2 1.4-4.1 1 0 1 .2.1.6zm6 0c-.7.2-1.9.2-2.5 0-.7-.3-.2-.5 1.2-.5s1.9.2 1.3.5zm12 5.5c-.2.5-1.3.8-2.3.8-1 0-2.1-.3-2.3-.8-.3-.4.8-.7 2.3-.7 1.5 0 2.6.3 2.3.7zm22.1 7.7c.4.5-.3.7-1.4.4-2.3-.6-2.6-1.3-.6-1.3.8 0 1.7.4 2 .9z"/><path d="M127 79.9c0 .6.5 1.3 1.1 1.7.8.4.7.9-.2 1.5-1.1.7-1.1.9.1.9 1.3 0 1.3.1 0 1-1.1.7-.8 1 1.6 1 1.6 0 3.9-.7 5-1.5 1.9-1.5 1.9-1.5 0-3-1.1-.8-2.8-1.3-3.8-.9-1 .3-1.8.1-1.8-.5s-.4-1.1-1-1.1c-.5 0-1 .4-1 .9zm6.9 3.8c-.6.7-1.7 1.3-2.3 1.2-.7 0-.6-.2.2-.6.6-.2 1-.8.8-1.2-.3-.4.1-.8.9-.8 1.1 0 1.2.4.4 1.4zM156.8 79.7c.6.2 1.8.2 2.5 0 .6-.3.1-.5-1.3-.5-1.4 0-1.9.2-1.2.5zM47.1 83.6c-2.7 3.5-3.4 6-2.2 8.2 1.2 2.3-.2 4.7-2.4 3.8-1.4-.5-1.5-1.4-1-4.6.5-3.3.4-4-.9-4-1.5 0-5.6 6.6-5.6 9 0 .6 4.2 1 11.5 1 6.3 0 11.5-.3 11.5-.6 0-.9-8-15.4-8.5-15.4-.2 0-1.3 1.2-2.4 2.6z"/><path d="M42.8 84.4c-2.5 1.1-2.6 1.3-.9 2.3 1.6 1 2 .8 3-1.3.6-1.3 1-2.4.8-2.3-.1 0-1.4.6-2.9 1.3zM140.6 86.5c-.4 1.2-.1 1.6 1.1 1.3 1.8-.3 2.1-2 .5-2.6-.5-.1-1.2.4-1.6 1.3zM86 87c-1.8.5-4 1.7-4.8 2.7-1.3 1.7-1.4 1.7-.7-.5.5-1.7.2-2.2-1.3-2.2-3 0-8.2 7.6-6.8 9.9 1.3 2 2.7 1.2 2.2-1.2l-.6-2.2 1.2 2.3c.6 1.2 2.7 3.2 4.5 4.4 3.5 2.1 3.5 2.1 6.1.1 2.6-2 4.8-9.1 3.8-12-.3-.6 0-1.4.7-1.7 1.8-.7-.4-.5-4.3.4zm0 4.6c0 1.3-.2 2.4-.4 2.4s-1.3.3-2.3.6c-1.7.6-1.7.6.1-.8 1.3-1 1.7-2.2 1.3-3.7-.3-1.1-.1-1.9.4-1.5.5.3.9 1.6.9 3z"/><path d="M59.6 93c.6 3.4.3 4.2-2.2 6.4l-2.9 2.4 3.8.7c3 .6 4.2 1.5 5.7 4.4l1.8 3.6 1.6-3.6c1.2-3 2.2-3.8 5.2-4.4l3.7-.6-2.1-2.2c-1.7-1.7-2.4-1.9-3.4-.9-1.4 1.4-4.4 1.6-5.2.3-1.1-1.7.6-4.1 2.9-4.1 1.7 0 2.6-.8 3.4-3.1.6-1.7.7-2.9.3-2.7-.4.2-1.9 1-3.5 1.8-2.4 1.2-3.2 1.1-6.2-.3L59 89l.6 4zM42 93c0 1.9 1.1 2.6 2.3 1.4.8-.8-.3-3.4-1.4-3.4-.5 0-.9.9-.9 2z"/><path d="M66.5 96.9c-.3.5-.1 1.2.5 1.6 1.2.7 3-.2 3-1.6 0-1.2-2.7-1.2-3.5 0zM35 101.5c0 3.4 1.2 4.6 2.5 2.4.4-.6 2.6-1 4.9-.8 8.6.4 11-.1 12.9-2.6l1.8-2.5H35v3.5zM76.3 99.7c2.4 2.7 2.2 3-2.3 3.8-3.1.5-4.4 1.4-5.5 3.5-2 3.9-2 3.9 1.7 3.8 4-.1 8.2 4.3 7.2 7.5-1.1 3.6-3.5 5.7-6.8 5.8-3.1.2-3.1.2-.3.6 1.9.3 2.7 1 2.5 2.1-.2 1.2.6 1.6 3.4 1.7 2 .1 3.5-.1 3.3-.5-.3-.4.4-1.5 1.5-2.5 2.7-2.4 2.7-6.5 0-6.5-1.5 0-2-.7-2-2.8 0-1.5-.7-3.8-1.6-5.1-1.8-2.6-.7-4.6 1.6-3 1.3.9 1.2 1-.2.5-2.2-.7-2.4 1.2-.3 2 .8.4 1.5 1.6 1.5 2.9 0 2 .4 2.2 4.1 2 3-.2 3.9.1 3.5 1.1-.7 1.9 1.4 1.7 4.1-.4l2.3-1.7-2-3.2c-1.4-2.4-2.4-3.1-3.7-2.6-1.6.5-1.6.4.1-.9 1.4-1.1 1.7-2.2 1.1-4.6-.3-1.8-.9-3.2-1.1-3.2-1.4 0-5.7 3.6-6.5 5.4-.8 1.9-.9 1.8-.5-.4.4-2-.2-2.9-3.2-4.9-3.1-2-3.4-2-1.9-.4zm9.2 7.2c-.3 1.2-1.4 2.1-2.3 2.1-1.3 0-1.3-.2.3-1.4 1.2-.9 1.6-1.9 1.1-3.2-.5-1.4-.4-1.6.4-.8.7.7.9 2.1.5 3.3zm2.3 5.1c-.7 1-1.4 1.7-1.7 1.5-.4-.4 1.8-3.5 2.5-3.5.2 0-.1.9-.8 2z"/><path d="M56.8 105.4c1.2 1.6 2.2 4 2.2 5.3 0 2.9-1.7 6.3-3.1 6.3-.6 0-.3-1 .5-2.2 3.4-4.8.4-10.8-5.3-10.8-2.6 0-2.9.3-2.7 3.2.1 2.7-.3 3.3-1.9 3.3-1.6 0-2-.6-1.9-3.3.2-2.8-.1-3.2-2.3-3.2-3.4 0-6.3 1.7-6.3 3.8 0 .9.5 3.5 1.1 5.7 1.1 3.8 1.2 3.9 2.2 1.7.7-1.5 1.8-2.2 3.1-2 2.9.4 2.7 4-.1 5.3-3.4 1.5-2.8 4.1 1.4 6.3 2.3 1.3 4.8.8 7.6-1.6 2.3-2 2.2-3.5-.5-4.7-2.8-1.2-3.5-4.3-1.2-5.2 2.5-1 5.6 3.2 4.8 6.6-.4 1.4-1.1 3.1-1.6 3.7-.5.8-.1 1.4 1.4 1.8 1.3.3 2.4.1 2.6-.4.8-2.3 4-5.3 5-4.7 1.6 1.1 8.3 13.4 8 14.9-.2.7.4 1.3 1.2 1.3.9 0 2.7 1 4 2.3 3 2.7 5 2.8 8.4.1 3.9-3.1 3.2-9.9-1.1-9.9-.9 0-1.1.9-.7 3 .5 2.2.2 3.1-1.1 3.6-2.5 1-5-1.9-3.6-4.2 1-1.7 1.1-1.6.8.6-.2 2.9 2.6 3.6 3.1.8.5-2.5-3.5-4.3-6.5-2.9-1.3.6-2.2.7-1.8.2.3-.5-.5-1.1-1.7-1.3-1.6-.2-2.6-1.3-3.4-3.6-.5-1.7-1.5-3.7-2.2-4.4-1.7-1.7-1.5-5.8.5-8 1-1.1 1.2-1.8.4-1.8-.6 0-1.9-1.6-2.8-3.5-1-2-2.4-3.5-3.4-3.5s-2.5-.3-3.5-.7c-1.6-.6-1.5-.3.4 2.1zm14.9 28.8c-.3.8-.6.5-.6-.6-.1-1.1.2-1.7.5-1.3.3.3.4 1.2.1 1.9zM113.5 103.9c-.3.5-.1 1.2.5 1.6.5.3 1-.1 1-.9 0-1.8-.6-2.1-1.5-.7zM132.5 104c-.3.5-.1 1 .4 1 .6 0 1.1-.5 1.1-1 0-.6-.2-1-.4-1-.3 0-.8.4-1.1 1z"/><path d="M45.6 106.7c-1.2 1.2-.6 3.3.9 3.3.8 0 1.5-.6 1.5-1.4 0-1.7-1.4-2.8-2.4-1.9zM122 111.4c0 .9.5 1.6 1 1.6.6 0 1-.4 1-.9 0-.6-.4-1.3-1-1.6-.5-.3-1 .1-1 .9zM66.6 113.6c-1.9 1.8-2 3.8-.6 6.5 1.2 2.1 3.5 2.6 2.7.6-.8-2 .9-4.1 2.7-3.4.9.4 1.6 1.8 1.6 3.3 0 2.2.2 2.5 1.5 1.4 1.8-1.5 2-7.1.3-8.8-1.7-1.7-6.4-1.5-8.2.4zM40.4 115.1c-.3.6-.2 1.5.2 1.9 1.2 1.2 3.8-.5 3-1.9-.9-1.4-2.3-1.4-3.2 0zM49.4 115.1c-1 1.7 1.3 3.6 2.7 2.2 1.2-1.2.4-3.3-1.1-3.3-.5 0-1.2.5-1.6 1.1zM155.5 116.9c-1.6 1-4 3-5.3 4.3l-2.3 2.5 3 .6c1.7.4 3.2 1.4 3.6 2.7.9 2.7 1.9 2.5 3.3-.5 1.3-2.8 1.6-5.2.5-4.2-.3.4-1.2.2-2-.4-1.5-1.3 0-3.9 2.3-3.9.8 0 1.4-.7 1.4-1.5 0-2-.9-1.9-4.5.4zM91.2 117.8c-1.9 1.2-3 1.3-5.2.5-2.8-1.1-2.9-1-2.3 1.8.4 2.1 0 3.6-1.2 4.9-1.1 1.2-1.4 2-.7 2.1.7.1 1.7.3 2.2.4.6.1 1.5.3 2 .4.6 0 1 .6 1 1.2 0 .5-.5.7-1.2.3-.7-.4-.8-.3-.4.5.4.6 1.1.9 1.6.6.5-.3 1.3.2 1.8 1.1.8 1.4 1.1 1.1 2-1.5.7-2.1 1.8-3.1 3.1-3.1 2.7 0 3.5-1.7 1.4-2.8-1.1-.7-2.3-.6-3.5.1-1.3.9-2 .9-2.9 0-1.5-1.5-.3-3.3 2.1-3.3 1 0 2.1-.8 2.3-1.8.4-1.4.5-1.3.6.4 0 1.1.9 2.8 2 3.8 1.6 1.5 1.9 1.5 3.1.1 1.1-1.3 1-1.9-.6-3.6-3-3.3-4.7-3.8-7.2-2.1z"/><path d="M69.6 118.9c-.4.5-.2 1.2.3 1.5.5.4 1.2.2 1.5-.3.4-.5.2-1.2-.3-1.5-.5-.4-1.2-.2-1.5.3zM156.5 119.9c-.6 1.1.9 2.3 1.9 1.4.9-.9.7-2.3-.3-2.3-.6 0-1.2.4-1.6.9zM58.7 123.9c-.9 1.6-1.6 4.4-1.5 6.2.2 2.6-.1 3.4-1.6 3.7-1.7.4-1.8 0-1.3-3.2.7-4.4-1.2-5.9-5.6-4.4-2 .7-3.6.7-5.3-.1l-2.5-1.1 2.8 5.2c3.3 6.1 13.9 17.7 20 21.9l4.3 3v-3.5c0-1.9.5-3.8 1-4.1 2.5-1.5.5-2.5-5.3-2.5-9.3 0-13.6-3.8-8.5-7.4 2.2-1.5 2.1-1.6-2.4-1.6-2.6 0-5-.5-5.3-1-.6-1 3.5-9.3 4.3-8.5.2.2-.5 1.9-1.7 3.8-1.1 1.9-2.1 3.7-2.1 4.1 0 .3 4.7.6 10.5.6s10.5-.3 10.5-.6c0-1.2-7.2-13.4-7.9-13.4-.4 0-1.4 1.3-2.4 2.9zM89.5 123c-.3.5.1 1 .9 1 .9 0 1.6-.5 1.6-1 0-.6-.4-1-.9-1-.6 0-1.3.4-1.6 1zM99.7 123.7c-1.7 1.6-.6 8 1.6 10.1 3 2.9 8.7 2.9 11.2.2 1-1.1 1.6-2.2 1.3-2.5-.3-.3-1.3.4-2.3 1.5-2.3 2.6-6.9 2.6-9.5 0-2-2-2.8-7.4-1.2-8.4.4-.2.6 1 .4 2.9-.2 1.8.1 3.6.7 3.9.7.5.9-.3.5-2.2-.3-1.6-.1-3.2.4-3.6.6-.4.8.2.5 1.4-1.1 4.3 4.6 6.9 6.7 3 .9-1.7.5-2.2-3.9-4.5-5.6-2.8-5.5-2.8-6.4-1.8zm8.3 4.3c0 .5-.4 1-1 1-.5 0-1-.5-1-1 0-.6.5-1 1-1 .6 0 1 .4 1 1zM143.5 124.9c-.7 1.2 3.1 2.5 4.6 1.5.8-.4.7-.9-.2-1.5-1.8-1.1-3.6-1.1-4.4 0zM140.3 127.7c-.4.9-.1 1.9.5 2.1 1.9.6 1.4 2.2-.8 2.2-1.3 0-2 .7-2 2 0 1.7.5 1.9 2.5 1.4 2.9-.7 3.4 1 .8 2.5-1.7.9-1.7 1 0 1.7 2.6 1 3.4-.4 3.9-6.4.4-4.4.2-5.4-1.3-6.2-2.4-1.4-2.9-1.3-3.6.7zM148.8 127.1c-1.4.8-1.6 1.9-1.1 6.2.6 6 1.4 7.2 4 6.3 1.7-.7 1.7-.8.1-1.7-2.7-1.5-2.2-3.2.7-2.5 2 .5 2.5.3 2.5-1.3 0-1.1.5-2.1 1.2-2.3.7-.3.5-.7-.6-1.1-1-.4-1.5-.3-1.1.3.3.6-.3 1-1.4 1-2.2 0-2.9-1.6-.9-2.2 1.2-.4.4-3.8-.9-3.8-.4 0-1.6.5-2.5 1.1zM94.5 127.7c-1.2.2-2.6 1.7-3.3 3.5-1 2.6-1.4 2.9-2.7 1.8-1.3-1-1.5-.9-1.5.7 0 1 .6 2.5 1.3 3.2 1 1.1.9 1.3-.1.7-.7-.4-2.5.3-4.3 1.8-3.2 2.7-6.3 3.4-7.4 1.6-.7-1.2-2.5-.4-2.5 1.1 0 .5 1.6.9 3.5.9 4.1 0 8.5 3.6 8.5 7.1 0 1.5.4 1.9 1.6 1.5.9-.3 2.2-.6 3-.6 1.7 0 1.5-4.7-.3-6.2-1.6-1.3-1.7-4.2-.3-6.9 1.1-2 7.4-2.8 8.5-.9.3.5 1.2.7 2 .4 1.2-.5 1.1-1-.5-3.1-1.1-1.4-2-3.6-2-4.9 0-1.3-.3-2.3-.7-2.3-.5.1-1.7.4-2.8.6zm.2 6.5c-.3.8-.6.5-.6-.6-.1-1.1.2-1.7.5-1.3.3.3.4 1.2.1 1.9zM136.7 127.6c-.7.7.2 3.4 1.2 3.4.4 0 .7-.9.7-2 0-2-.7-2.5-1.9-1.4z"/><path d="M110.5 130.6c-1.4 2.2-2.2 2.5-4.6 2-1.9-.3-2.8-.2-2.4.4 1.3 2.1 6.4 1.1 8.1-1.5.9-1.4 1.4-2.8 1.2-3.1-.3-.2-1.3.7-2.3 2.2zM130.8 128.8c-2.9.3-4.3 2.8-3.2 5.6.8 2.2 2.1 2 2.7-.4.7-2.6 3.7-1.6 3.7 1.3 0 2 .1 2 1.6.5 1.1-1.1 1.4-2.5 1-4.1-.7-2.8-1.9-3.4-5.8-2.9z"/><path d="M114.4 131.1c.1 2.4.3 2.5 5.3 2.2 5-.3 5.3-.2 6.8 2.9l1.6 3.3-2.1-2.8c-3-3.7-4.8-3.5-4.6.5.1 2.6-.3 3.3-1.8 3.3-1.1 0-2-.6-2.2-1.3-.1-.7 0-.8.3-.2.8 1.8 3.3 1.1 3.3-.9 0-2.6-1.9-3.7-3.2-2-.8 1.1-.9 1-.4-.4.6-2-1.6-2.3-3.6-.4-.7.7-3.3 1.4-5.8 1.5-7.2.5-8 .9-8 4.7 0 2.1-.7 3.9-1.7 4.7-2.7 2-2.5 4.8.2 4.8 1.6 0 2.2-.6 2.1-1.8-.1-1.8 1.3-2 5-.8 1.9.6 2.1.3 2-3.1-.1-3.1.3-3.8 2.4-4.3 1.9-.4 3 0 4.3 1.7 3.7 4.6 5.4 4.8 9.2 1 1.9-1.9 3.5-3.1 3.5-2.7 0 .5-.4 1.2-1 1.5-2 1.2-.9 2 3 2.2 2.2 0 4-.3 4-.8s-.7-.9-1.5-.9-1.5-.6-1.5-1.3c0-.7-.9-3-2.1-5.1-1.1-2.1-1.8-4.4-1.5-5.1.6-1.6-9.6-2.8-10.5-1.3-.4.6-.9.5-1.2-.3-.2-.8-.4-.2-.3 1.2zM55 131.5c0 .8.5 1.5 1 1.5.6 0 1-.7 1-1.5s-.4-1.5-1-1.5c-.5 0-1 .7-1 1.5zM146.1 133.6c0 1.1.3 1.4.6.6.3-.7.2-1.6-.1-1.9-.3-.4-.6.2-.5 1.3zM131 135c0 .5.5 1 1 1 .6 0 1-.5 1-1 0-.6-.4-1-1-1-.5 0-1 .4-1 1z"/><path d="M135.9 137.3c-.8.7-1.8 2-2.2 3-.5 1.4-.2 1.6 2.1 1.2 2.6-.5 2.6-.5.5.6-1.3.7-2.3 2.1-2.3 3.2 0 1.4-.4 1.7-1.7 1.2-3.7-1.5-4.9-1.6-7.8-.4-1.7.7-3.2 1.2-3.5 1.1-.3 0-.6 2.3-.6 5.1-.1 3.3 0 3.9.3 1.7.5-4.1 1.8-5.9 5-7.1 3.4-1.3 7.2.6 8.8 4.3 1.2 2.7 1.4 2.9 1.5 1.1 0-1.2-.4-2.5-1-2.8-1.5-1-1.2-2.8.4-2.2.8.3 3.2.8 5.3 1.2 3 .4 3.3.3 1.6-.4-1.7-.8-2.3-1.8-2.2-3.8l.1-2.8.7 2.5c.4 1.6 1.4 2.5 2.6 2.5 1.4 0 2.1-.8 2.4-2.5.3-2.1.4-2.2 1-.7.6 1.7.8 1.7 2 .3 1.1-1.3 1-1.7-.4-2.3-1.1-.4-2.2 0-3 1-.7 1-1.5 1.7-1.9 1.7-1.2 0-4.6-4-4.6-5.4 0-2.1-1.3-2.6-3.1-1.3zM55.8 138.1c-3.7 2.1-.9 5.9 4.3 5.9 1.8 0 1.9-.3.9-1.5-.6-.8-1-2.2-.7-3.2.4-1.5.5-1.4.6.3 0 1.2.9 2.5 1.9 2.9 2.5 1.1 8.4 2.4 7.8 1.8-.3-.3.4-1.3 1.6-2.3l2.1-1.7-2.4-1.6c-3-2.1-5.3-2.2-4.5-.2.7 1.9-.3 4.5-1.6 4.5-.6 0-.5-.7.2-1.5 1-1.2 1-1.9.2-2.7-.9-.9-1.2-.9-1.2 0 0 .7-.5 1.2-1.1 1.2-.5 0-.7-.5-.3-1.2.4-.6.3-.8-.4-.4-.6.3-1.3.2-1.7-.4-.8-1.3-3.5-1.2-5.7.1zM91 138.4c-.6.8-1 2.5-.8 3.7.3 2.5 2.8 3.9 2.8 1.5 0-2.7 2-2.8 3-.1.5 1.4 1.4 2.3 2 2 1.4-.9 1.3-5.8-.2-7.3-1.6-1.6-5.3-1.5-6.8.2zM145.6 138.5c-.3.9 0 1.5.9 1.5s1.2-.6.9-1.5c-.4-.8-.7-1.5-.9-1.5-.2 0-.5.7-.9 1.5z"/><path d="M94.1 143.6c0 1.1.3 1.4.6.6.3-.7.2-1.6-.1-1.9-.3-.4-.6.2-.5 1.3zM108.2 144.7c.2 1.7.9 2.8 1.8 2.8s1.6-1.1 1.8-2.8c.3-2.2-.1-2.7-1.8-2.7s-2.1.5-1.8 2.7zM71.1 146.6c-2.3 3-2.8 7.6-.8 9.2.6.6 1.4 1 1.7 1 .3 0 1.7.3 3.3.7 5.9 1.5 10.1-5.1 6-9.7-.9-1-1.1-1.8-.5-1.8 1.5 0 3.2 3.3 3.2 6.4 0 1.6-1.1 3.4-3.2 5-1.8 1.4-2.7 2.6-2 2.6 2.6 0 6.2-4.8 6.2-8.3 0-4.7-3.1-7.7-8-7.7-3 0-4.3.6-5.9 2.6zm6.4-.9c-4.7.7-6.8 3.2-6.1 7.3.4 2.4.3 3-.4 2-2.9-4.5.7-10.1 6.3-9.9l3.2.2-3 .4zm3.5 3.2c1.6 3.1 1.2 4.9-1.4 6.6-2.9 1.9-6.1.8-7.1-2.6-1.5-4.5 6.2-8.2 8.5-4z"/><path d="M74 149.5c-1.4 1.7-.5 5.1 1.6 5.9 2.2.8 5.4-1.1 5.4-3.2 0-3.8-4.6-5.6-7-2.7zm4.1 2.8c-1.3 1.3-2.6.3-1.6-1.2.3-.6 1.1-.8 1.7-.5.6.4.6 1-.1 1.7zM112.7 146.2c-.8 2.8-.4 3.2 2.2 2.3 2.6-.8 2.7-2.1.2-3.4-1.5-.9-2-.7-2.4 1.1z"/><path d="M125.3 148c-2.8 1.1-3.9 5.3-2.4 8.7 1.1 2.4 1.1 2.5-.5 1.2s-1.7-1.2-1.1.6c.7 2 .7 2-.8.1-1.4-1.8-2-5.9-1.5-9.5.1-1-.4-1.1-1.7-.6-2.9 1.2-11.6 1.4-13.6.3-3.1-1.6-3.2 0-.3 2.3 2.3 1.8 2.7 2.8 2.2 5-.6 3.3-.4 3.4 2.4 1.7 1.6-1 2.4-1 4 0 2.8 1.7 3.1 1.5 2.4-1.3-.6-2.5.9-5.5 2.9-5.5.5 0 .3.8-.6 1.7-1 1.2-1.3 2.8-1 4.5.6 3-.5 3.5-3.7 1.8-2.2-1.2-9 1.5-9.8 3.8-.6 1.9 9 .8 18.1-2 6.3-1.9 6.6-2.2 4.7-3.5-2.2-1.6-2.7-5.2-.8-7.1 1.9-1.9 6.6-1.5 7.8.7.5 1.1 1 2.6 1 3.3 0 .7-.6.2-1.3-1.2-1.6-3.2-6.3-4-7.1-1.2-.9 2.9.3 5.2 2.8 5.2 1.3 0 2.6-.3 3-.8.4-.4 1.3-.7 1.9-.7 2.4 0 1.8-4.3-.9-6.4-3-2.3-3-2.3-6.1-1.1zm3.7 5.5c0 .8-.4 1.5-.9 1.5-1.3 0-2.2-1.6-1.4-2.4 1.1-1.1 2.3-.6 2.3.9zM136.7 151c.4 1.6.9 1.8 2.5.9 1.7-.9 1.8-1.3.7-2-2.4-1.5-3.7-1-3.2 1.1z"/><path d="M100.7 151.7c-.3.3-3.2.6-6.4.6-5.5.2-6.1.4-9.6 4.3-3.6 4-3.6 4.2-1.5 4.7 1.1.3 3 .1 4.1-.4 1.4-.8 2.2-.7 3.1.2.8.9.8 1-.3.4-.9-.5-1.2-.4-.7.3 1.6 2.6 3.6 1.2 3.6-2.6 0-4.5 1.9-8.1 2.2-4.2.1 1.4.3 3.4.4 4.5.1 1.1.2 2.6.3 3.2.1.7 1.3 1.3 2.9 1.3 2.3-.1 2.4-.2 1-1.1-2.7-1.5-2.2-3.2.8-2.5 2.1.6 2.5.4 2.2-1.1-.2-1-1.1-1.7-2.1-1.7-.9.1-1.7-.4-1.7-1.2 0-.8.5-1.4 1-1.4.6 0 1-.8 1.1-1.8.1-1.1.3-.9.8.7.8 3 3.1 4 3.1 1.4 0-1.8-3.3-4.6-4.3-3.6zm-10.9 5.2c.3.9-.2 1.1-1.7.6-1.7-.5-2.1-.2-2.2 1.7-.1 1.8-.2 1.9-.6.5-.9-3.5 3.4-6.1 4.5-2.8z"/></svg>